# xmcd
#
# Track frame offsets: 
#        150
#        9367
#        21189
#        31645
#        42500
#        53605
#        62919
#        75596
#        86678
#        97517
#        108392
#        116574
#
# Disc length: 1720 seconds
#
# Revision: 0
# Processed by: cddbd v1.5.2PL0 Copyright (c) Steve Scherf et al.
# Submitted via: ExactAudioCopy v1.0b1
#
DISCID=8106b60c
DTITLE=Sam and Dave - Sam and Dave
DYEAR=1963
DGENRE=R&B
TTITLE0=It Feels So Nice (stereo)
TTITLE1=I Got A Thing Going On (mono)
TTITLE2=My Love Belongs To You (mono)
TTITLE3=Listening For My Name (stereo)
TTITLE4=No More Pain (mono)
TTITLE5=I Found Out (mono)
TTITLE6=It Was So Nice While It Lasted (mono)
TTITLE7=You Ain't No Big Thing Baby (stereo)
TTITLE8=I Need Love (stereo)
TTITLE9=She's Alright (stereo)
TTITLE10=Keep A-Walkin'
TTITLE11=If She'll Still Have Me (stereo)
EXTD=
EXTT0=
EXTT1=
EXTT2=
EXTT3=
EXTT4=
EXTT5=
EXTT6=
EXTT7=
EXTT8=
EXTT9=
EXTT10=
EXTT11=
PLAYORDER=
